<svg width="156" height="30" viewBox="0 0 156 30" fill="none" xmlns="http://www.w3.org/2000/svg">
<path d="M0.42 2.504H16.98V7.544H5.64V13.556H15.468V18.596H5.64V29H0.42V2.504ZM17.5667 29L29.5187 1.46H29.8067L41.7587 29H35.7107L28.0787 9.632L31.8587 7.04L22.7147 29H17.5667ZM25.7387 19.424H33.6947L35.5307 23.816H24.1187L25.7387 19.424ZM54.7291 2.504C56.9611 2.504 58.8451 2.876 60.3811 3.62C61.9171 4.34 63.0811 5.372 63.8731 6.716C64.6891 8.036 65.0971 9.608 65.0971 11.432C65.0971 12.512 64.9291 13.592 64.5931 14.672C64.2811 15.752 63.7531 16.736 63.0091 17.624C62.2891 18.512 61.3291 19.232 60.1291 19.784C58.9291 20.312 57.4411 20.576 55.6651 20.576H51.9211V29H46.7011V2.504H54.7291ZM55.6291 15.536C56.6851 15.536 57.5011 15.32 58.0771 14.888C58.6771 14.432 59.0971 13.904 59.3371 13.304C59.5771 12.68 59.6971 12.116 59.6971 11.612C59.6971 11.324 59.6491 10.964 59.5531 10.532C59.4811 10.076 59.3131 9.62 59.0491 9.164C58.7851 8.708 58.3771 8.324 57.8251 8.012C57.2971 7.7 56.5771 7.544 55.6651 7.544H51.9211V15.536H55.6291ZM60.5251 18.776L67.0771 29H60.9931L54.2971 18.92L60.5251 18.776ZM72.4608 29V1.424H72.4968L87.2208 22.304L84.9888 21.8L99.6768 1.424H99.7488V29H94.5288V13.196L94.8528 15.896L85.8888 28.64H85.8168L76.6008 15.896L77.5008 13.412V29H72.4608Z" fill="#13B30F"/>
<path d="M108.397 6.68H112.97V13.448H116.858V17.012H112.97V29H108.397V17.012H105.877V13.448H108.397V6.68ZM128.262 29.396C126.414 29.396 124.83 29.048 123.51 28.352C122.214 27.632 121.218 26.648 120.522 25.4C119.85 24.152 119.514 22.724 119.514 21.116C119.514 19.556 119.91 18.152 120.702 16.904C121.494 15.656 122.55 14.66 123.87 13.916C125.214 13.172 126.714 12.8 128.37 12.8C130.53 12.8 132.318 13.436 133.734 14.708C135.15 15.956 136.074 17.756 136.506 20.108L124.266 24.104L123.222 21.584L132.438 18.38L131.466 18.884C131.25 18.212 130.866 17.624 130.314 17.12C129.786 16.616 129.018 16.364 128.01 16.364C126.81 16.364 125.838 16.772 125.094 17.588C124.374 18.404 124.014 19.484 124.014 20.828C124.014 22.316 124.422 23.468 125.238 24.284C126.078 25.1 127.122 25.508 128.37 25.508C128.946 25.508 129.498 25.412 130.026 25.22C130.578 25.004 131.118 24.728 131.646 24.392L133.662 27.812C132.846 28.292 131.958 28.676 130.998 28.964C130.062 29.252 129.15 29.396 128.262 29.396ZM140.32 29V0.739999H144.892V29H140.32ZM148.78 18.524L155.836 29H150.508L145.792 21.116L148.78 18.524ZM143.524 24.536L143.056 20.18L152.452 13.124L155.224 15.572L143.524 24.536Z" fill="white"/>
</svg>
