<svg width="167" height="57" viewBox="0 0 167 57" fill="none" xmlns="http://www.w3.org/2000/svg">
<mask id="path-1-outside-1_103_16" maskUnits="userSpaceOnUse" x="106" y="10" width="54" height="32" fill="black">
<rect fill="white" x="106" y="10" width="54" height="32"/>
<path d="M110.14 17.68H114.712V24.448H118.6V28.012H114.712V40H110.14V28.012H107.62V24.448H110.14V17.68ZM130.004 40.396C128.156 40.396 126.572 40.048 125.252 39.352C123.956 38.632 122.96 37.648 122.264 36.4C121.592 35.152 121.256 33.724 121.256 32.116C121.256 30.556 121.652 29.152 122.444 27.904C123.236 26.656 124.292 25.66 125.612 24.916C126.956 24.172 128.456 23.8 130.112 23.8C132.272 23.8 134.06 24.436 135.476 25.708C136.892 26.956 137.816 28.756 138.248 31.108L126.008 35.104L124.964 32.584L134.18 29.38L133.208 29.884C132.992 29.212 132.608 28.624 132.056 28.12C131.528 27.616 130.76 27.364 129.752 27.364C128.552 27.364 127.58 27.772 126.836 28.588C126.116 29.404 125.756 30.484 125.756 31.828C125.756 33.316 126.164 34.468 126.98 35.284C127.82 36.1 128.864 36.508 130.112 36.508C130.688 36.508 131.24 36.412 131.768 36.22C132.32 36.004 132.86 35.728 133.388 35.392L135.404 38.812C134.588 39.292 133.7 39.676 132.74 39.964C131.804 40.252 130.892 40.396 130.004 40.396ZM142.062 40V11.74H146.634V40H142.062ZM150.522 29.524L157.578 40H152.25L147.534 32.116L150.522 29.524ZM145.266 35.536L144.798 31.18L154.194 24.124L156.966 26.572L145.266 35.536Z"/>
</mask>
<path d="M110.14 17.68H114.712V24.448H118.6V28.012H114.712V40H110.14V28.012H107.62V24.448H110.14V17.68ZM130.004 40.396C128.156 40.396 126.572 40.048 125.252 39.352C123.956 38.632 122.96 37.648 122.264 36.4C121.592 35.152 121.256 33.724 121.256 32.116C121.256 30.556 121.652 29.152 122.444 27.904C123.236 26.656 124.292 25.66 125.612 24.916C126.956 24.172 128.456 23.8 130.112 23.8C132.272 23.8 134.06 24.436 135.476 25.708C136.892 26.956 137.816 28.756 138.248 31.108L126.008 35.104L124.964 32.584L134.18 29.38L133.208 29.884C132.992 29.212 132.608 28.624 132.056 28.12C131.528 27.616 130.76 27.364 129.752 27.364C128.552 27.364 127.58 27.772 126.836 28.588C126.116 29.404 125.756 30.484 125.756 31.828C125.756 33.316 126.164 34.468 126.98 35.284C127.82 36.1 128.864 36.508 130.112 36.508C130.688 36.508 131.24 36.412 131.768 36.22C132.32 36.004 132.86 35.728 133.388 35.392L135.404 38.812C134.588 39.292 133.7 39.676 132.74 39.964C131.804 40.252 130.892 40.396 130.004 40.396ZM142.062 40V11.74H146.634V40H142.062ZM150.522 29.524L157.578 40H152.25L147.534 32.116L150.522 29.524ZM145.266 35.536L144.798 31.18L154.194 24.124L156.966 26.572L145.266 35.536Z" fill="white"/>
<path d="M110.14 17.68V16.68H109.14V17.68H110.14ZM114.712 17.68H115.712V16.68H114.712V17.68ZM114.712 24.448H113.712V25.448H114.712V24.448ZM118.6 24.448H119.6V23.448H118.6V24.448ZM118.6 28.012V29.012H119.6V28.012H118.6ZM114.712 28.012V27.012H113.712V28.012H114.712ZM114.712 40V41H115.712V40H114.712ZM110.14 40H109.14V41H110.14V40ZM110.14 28.012H111.14V27.012H110.14V28.012ZM107.62 28.012H106.62V29.012H107.62V28.012ZM107.62 24.448V23.448H106.62V24.448H107.62ZM110.14 24.448V25.448H111.14V24.448H110.14ZM110.14 18.68H114.712V16.68H110.14V18.68ZM113.712 17.68V24.448H115.712V17.68H113.712ZM114.712 25.448H118.6V23.448H114.712V25.448ZM117.6 24.448V28.012H119.6V24.448H117.6ZM118.6 27.012H114.712V29.012H118.6V27.012ZM113.712 28.012V40H115.712V28.012H113.712ZM114.712 39H110.14V41H114.712V39ZM111.14 40V28.012H109.14V40H111.14ZM110.14 27.012H107.62V29.012H110.14V27.012ZM108.62 28.012V24.448H106.62V28.012H108.62ZM107.62 25.448H110.14V23.448H107.62V25.448ZM111.14 24.448V17.68H109.14V24.448H111.14ZM125.252 39.352L124.767 40.2262L124.776 40.2315L124.786 40.2366L125.252 39.352ZM122.264 36.4L121.384 36.8741L121.387 36.8806L121.391 36.8871L122.264 36.4ZM122.444 27.904L121.6 27.3682L121.6 27.3682L122.444 27.904ZM125.612 24.916L125.128 24.0411L125.121 24.0448L125.612 24.916ZM135.476 25.708L134.808 26.452L134.815 26.4582L135.476 25.708ZM138.248 31.108L138.559 32.0586L139.39 31.7873L139.232 30.9273L138.248 31.108ZM126.008 35.104L125.085 35.4867L125.439 36.3419L126.319 36.0546L126.008 35.104ZM124.964 32.584L124.636 31.6395L123.635 31.9875L124.041 32.9667L124.964 32.584ZM134.18 29.38L134.641 30.2678L133.852 28.4355L134.18 29.38ZM133.208 29.884L132.256 30.19L132.618 31.3164L133.669 30.7718L133.208 29.884ZM132.056 28.12L131.366 28.8434L131.374 28.851L131.382 28.8585L132.056 28.12ZM126.836 28.588L126.097 27.9142L126.092 27.9203L126.087 27.9264L126.836 28.588ZM126.98 35.284L126.273 35.9911L126.278 35.9962L126.284 36.0013L126.98 35.284ZM131.768 36.22L132.11 37.1598L132.122 37.1557L132.133 37.1512L131.768 36.22ZM133.388 35.392L134.25 34.8842L133.724 33.9928L132.852 34.5483L133.388 35.392ZM135.404 38.812L135.911 39.6739L136.774 39.1664L136.266 38.3042L135.404 38.812ZM132.74 39.964L132.453 39.0061L132.446 39.0082L132.74 39.964ZM130.004 39.396C128.281 39.396 126.865 39.0716 125.719 38.4674L124.786 40.2366C126.28 41.0244 128.032 41.396 130.004 41.396V39.396ZM125.738 38.4778C124.598 37.8447 123.74 36.992 123.138 35.9129L121.391 36.8871C122.181 38.304 123.314 39.4193 124.767 40.2262L125.738 38.4778ZM123.145 35.9259C122.561 34.8422 122.256 33.581 122.256 32.116H120.256C120.256 33.867 120.623 35.4618 121.384 36.8741L123.145 35.9259ZM122.256 32.116C122.256 30.7347 122.604 29.5185 123.289 28.4398L121.6 27.3682C120.701 28.7855 120.256 30.3773 120.256 32.116H122.256ZM123.289 28.4398C123.99 27.3346 124.923 26.4523 126.103 25.7872L125.121 24.0448C123.662 24.8677 122.483 25.9774 121.6 27.3682L123.289 28.4398ZM126.097 25.7909C127.281 25.1353 128.612 24.8 130.112 24.8V22.8C128.301 22.8 126.632 23.2087 125.128 24.0411L126.097 25.7909ZM130.112 24.8C132.061 24.8 133.601 25.3671 134.808 26.4519L136.145 24.9641C134.52 23.5049 132.483 22.8 130.112 22.8V24.8ZM134.815 26.4582C136.022 27.5221 136.862 29.0974 137.265 31.2887L139.232 30.9273C138.77 28.4146 137.762 26.3899 136.138 24.9578L134.815 26.4582ZM137.938 30.1574L125.698 34.1534L126.319 36.0546L138.559 32.0586L137.938 30.1574ZM126.932 34.7213L125.888 32.2013L124.041 32.9667L125.085 35.4867L126.932 34.7213ZM125.293 33.5285L134.509 30.3245L133.852 28.4355L124.636 31.6395L125.293 33.5285ZM133.72 28.4922L132.748 28.9962L133.669 30.7718L134.641 30.2678L133.72 28.4922ZM134.16 29.578C133.888 28.7302 133.403 27.9958 132.731 27.3815L131.382 28.8585C131.813 29.2522 132.097 29.6938 132.256 30.19L134.16 29.578ZM132.747 27.3966C131.972 26.6567 130.918 26.364 129.752 26.364V28.364C130.602 28.364 131.085 28.5753 131.366 28.8434L132.747 27.3966ZM129.752 26.364C128.298 26.364 127.049 26.8711 126.097 27.9142L127.575 29.2618C128.112 28.6729 128.806 28.364 129.752 28.364V26.364ZM126.087 27.9264C125.17 28.9653 124.756 30.3 124.756 31.828H126.756C126.756 30.668 127.063 29.8427 127.586 29.2496L126.087 27.9264ZM124.756 31.828C124.756 33.501 125.22 34.9376 126.273 35.9911L127.688 34.5769C127.109 33.9984 126.756 33.131 126.756 31.828H124.756ZM126.284 36.0013C127.323 37.0113 128.623 37.508 130.112 37.508V35.508C129.106 35.508 128.317 35.1887 127.677 34.5667L126.284 36.0013ZM130.112 37.508C130.802 37.508 131.47 37.3926 132.11 37.1598L131.427 35.2802C131.011 35.4314 130.575 35.508 130.112 35.508V37.508ZM132.133 37.1512C132.748 36.9104 133.346 36.6044 133.925 36.2357L132.852 34.5483C132.375 34.8516 131.893 35.0976 131.404 35.2888L132.133 37.1512ZM132.527 35.8998L134.543 39.3198L136.266 38.3042L134.25 34.8842L132.527 35.8998ZM134.897 37.9501C134.154 38.3871 133.341 38.7399 132.453 39.0062L133.028 40.9218C134.06 40.6121 135.022 40.1969 135.911 39.6739L134.897 37.9501ZM132.446 39.0082C131.596 39.2699 130.783 39.396 130.004 39.396V41.396C131.002 41.396 132.013 41.2341 133.034 40.9198L132.446 39.0082ZM142.062 40H141.062V41H142.062V40ZM142.062 11.74V10.74H141.062V11.74H142.062ZM146.634 11.74H147.634V10.74H146.634V11.74ZM146.634 40V41H147.634V40H146.634ZM150.522 29.524L151.352 28.9654L150.721 28.0282L149.867 28.7686L150.522 29.524ZM157.578 40V41H159.458L158.408 39.4414L157.578 40ZM152.25 40L151.392 40.5133L151.683 41H152.25V40ZM147.534 32.116L146.879 31.3606L146.246 31.9099L146.676 32.6293L147.534 32.116ZM145.266 35.536L144.272 35.6428L144.462 37.4119L145.875 36.3298L145.266 35.536ZM144.798 31.18L144.198 30.3804L143.743 30.7217L143.804 31.2868L144.798 31.18ZM154.194 24.124L154.856 23.3744L154.246 22.835L153.594 23.3244L154.194 24.124ZM156.966 26.572L157.575 27.3658L158.539 26.6268L157.628 25.8224L156.966 26.572ZM143.062 40V11.74H141.062V40H143.062ZM142.062 12.74H146.634V10.74H142.062V12.74ZM145.634 11.74V40H147.634V11.74H145.634ZM146.634 39H142.062V41H146.634V39ZM149.693 30.0826L156.749 40.5586L158.408 39.4414L151.352 28.9654L149.693 30.0826ZM157.578 39H152.25V41H157.578V39ZM153.109 39.4867L148.393 31.6027L146.676 32.6293L151.392 40.5133L153.109 39.4867ZM148.19 32.8714L151.178 30.2794L149.867 28.7686L146.879 31.3606L148.19 32.8714ZM146.261 35.4292L145.793 31.0732L143.804 31.2868L144.272 35.6428L146.261 35.4292ZM145.399 31.9796L154.795 24.9236L153.594 23.3244L144.198 30.3804L145.399 31.9796ZM153.532 24.8736L156.304 27.3216L157.628 25.8224L154.856 23.3744L153.532 24.8736ZM156.358 25.7782L144.658 34.7422L145.875 36.3298L157.575 27.3658L156.358 25.7782Z" fill="#13B20F" mask="url(#path-1-outside-1_103_16)"/>
<path d="M3.42 14.504H19.98V19.544H8.64V25.556H18.468V30.596H8.64V41H3.42V14.504ZM20.5667 41L32.5187 13.46H32.8067L44.7587 41H38.7107L31.0787 21.632L34.8587 19.04L25.7147 41H20.5667ZM28.7387 31.424H36.6947L38.5307 35.816H27.1187L28.7387 31.424ZM57.7291 14.504C59.9611 14.504 61.8451 14.876 63.3811 15.62C64.9171 16.34 66.0811 17.372 66.8731 18.716C67.6891 20.036 68.0971 21.608 68.0971 23.432C68.0971 24.512 67.9291 25.592 67.5931 26.672C67.2811 27.752 66.7531 28.736 66.0091 29.624C65.2891 30.512 64.3291 31.232 63.1291 31.784C61.9291 32.312 60.4411 32.576 58.6651 32.576H54.9211V41H49.7011V14.504H57.7291ZM58.6291 27.536C59.6851 27.536 60.5011 27.32 61.0771 26.888C61.6771 26.432 62.0971 25.904 62.3371 25.304C62.5771 24.68 62.6971 24.116 62.6971 23.612C62.6971 23.324 62.6491 22.964 62.5531 22.532C62.4811 22.076 62.3131 21.62 62.0491 21.164C61.7851 20.708 61.3771 20.324 60.8251 20.012C60.2971 19.7 59.5771 19.544 58.6651 19.544H54.9211V27.536H58.6291ZM63.5251 30.776L70.0771 41H63.9931L57.2971 30.92L63.5251 30.776ZM75.4608 41V13.424H75.4968L90.2208 34.304L87.9888 33.8L102.677 13.424H102.749V41H97.5288V25.196L97.8528 27.896L88.8888 40.64H88.8168L79.6008 27.896L80.5008 25.412V41H75.4608Z" fill="#13B20F"/>
</svg>
